<?xml version="1.0" encoding="UTF-8" standalone="no"?>
<!-- Created with Inkscape (http://www.inkscape.org/) -->

<svg
   xmlns:dc="http://purl.org/dc/elements/1.1/"
   xmlns:cc="http://creativecommons.org/ns#"
   xmlns:rdf="http://www.w3.org/1999/02/22-rdf-syntax-ns#"
   xmlns:svg="http://www.w3.org/2000/svg"
   xmlns="http://www.w3.org/2000/svg"
   xmlns:sodipodi="http://sodipodi.sourceforge.net/DTD/sodipodi-0.dtd"
   xmlns:inkscape="http://www.inkscape.org/namespaces/inkscape"
   width="150mm"
   height="50mm"
   viewBox="0 0 531.49607 177.16536"
   id="svg2"
   version="1.1"
   inkscape:version="0.91 r13725"
   sodipodi:docname="mantis.svg">
  <defs
     id="defs4" />
  <sodipodi:namedview
     id="base"
     pagecolor="#ffffff"
     bordercolor="#666666"
     borderopacity="1.0"
     inkscape:pageopacity="0.0"
     inkscape:pageshadow="2"
     inkscape:zoom="0.75351064"
     inkscape:cx="154.44277"
     inkscape:cy="47.181299"
     inkscape:document-units="px"
     inkscape:current-layer="layer1"
     showgrid="false"
     inkscape:snap-bbox="true"
     inkscape:snap-global="true"
     inkscape:snap-intersection-paths="false"
     inkscape:object-nodes="true"
     inkscape:object-paths="true"
     inkscape:window-width="1855"
     inkscape:window-height="1056"
     inkscape:window-x="65"
     inkscape:window-y="24"
     inkscape:window-maximized="1"
     fit-margin-top="0"
     fit-margin-left="0"
     fit-margin-right="0"
     fit-margin-bottom="0" />
  <metadata
     id="metadata7">
    <rdf:RDF>
      <cc:Work
         rdf:about="">
        <dc:format>image/svg+xml</dc:format>
        <dc:type
           rdf:resource="http://purl.org/dc/dcmitype/StillImage" />
        <dc:title></dc:title>
      </cc:Work>
    </rdf:RDF>
  </metadata>
  <g
     inkscape:label="Layer 1"
     inkscape:groupmode="layer"
     id="layer1"
     transform="translate(-85.03262,-828.47066)">
    <g
       id="g4182"
       transform="matrix(0.75,0,0,0.75,107.00621,217.2144)">
      <path
         sodipodi:nodetypes="ccccc"
         inkscape:connector-curvature="0"
         id="path4350"
         d="m 120.22614,932.87798 15.33974,-20.99567 -105.337836,14.50411 22.598277,34.44175 z"
         style="fill:#4588bd;fill-opacity:1;fill-rule:evenodd;stroke:none;stroke-width:1px;stroke-linecap:round;stroke-linejoin:round;stroke-opacity:1" />
      <path
         sodipodi:nodetypes="cccc"
         inkscape:connector-curvature="0"
         id="path4297"
         d="m 183.81703,836.42866 9.8927,15.93847 11.20903,5.28043 z"
         style="fill:#2d5a7e;fill-opacity:1;fill-rule:evenodd;stroke:none;stroke-width:1px;stroke-linecap:round;stroke-linejoin:round;stroke-opacity:1" />
      <path
         sodipodi:nodetypes="cccc"
         inkscape:connector-curvature="0"
         id="path4301"
         d="m 193.70973,852.36713 5.55384,28.66054 5.65519,-23.38011 z"
         style="fill:#b5d0e5;fill-opacity:1;fill-rule:evenodd;stroke:none;stroke-width:1px;stroke-linecap:butt;stroke-linejoin:miter;stroke-opacity:1" />
      <path
         sodipodi:nodetypes="cccc"
         style="fill:#8ab5d6;fill-opacity:1;fill-rule:evenodd;stroke:none;stroke-width:1px;stroke-linecap:butt;stroke-linejoin:miter;stroke-opacity:1"
         d="m 184.1105,857.85241 15.15307,23.17526 -5.55384,-28.66054 z"
         id="path4307"
         inkscape:connector-curvature="0" />
      <path
         style="fill:#2d5a7e;fill-opacity:1;fill-rule:evenodd;stroke:none;stroke-width:1px;stroke-linecap:round;stroke-linejoin:round;stroke-opacity:1"
         d="m 191.45813,869.08997 -2.95942,1.10429 10.76486,10.83341 z"
         id="path4311"
         inkscape:connector-curvature="0"
         sodipodi:nodetypes="cccc" />
      <path
         sodipodi:nodetypes="ccccc"
         style="fill:#4588bd;fill-opacity:1;fill-rule:evenodd;stroke:none;stroke-width:1px;stroke-linecap:butt;stroke-linejoin:miter;stroke-opacity:1"
         d="m 184.1105,857.85241 -19.47269,21.46112 11.71166,-2.91414 15.10866,-7.30942 z"
         id="path4313"
         inkscape:connector-curvature="0" />
      <path
         sodipodi:nodetypes="cccc"
         inkscape:connector-curvature="0"
         id="path4315"
         d="m 176.34947,876.39939 -11.71166,2.91414 1.78271,10.90196 z"
         style="fill:#2d5a7e;fill-opacity:1;fill-rule:evenodd;stroke:none;stroke-width:1px;stroke-linecap:round;stroke-linejoin:round;stroke-opacity:1" />
      <path
         inkscape:connector-curvature="0"
         id="path4317"
         d="m 168.48172,887.34735 8.94144,26.3275 -3.80322,8.01237 -7.19942,-31.47173 z"
         style="fill:#8ab5d6;fill-opacity:1;fill-rule:evenodd;stroke:none;stroke-width:1px;stroke-linecap:butt;stroke-linejoin:miter;stroke-opacity:1"
         sodipodi:nodetypes="ccccc" />
      <path
         sodipodi:nodetypes="ccccc"
         style="fill:#b5d0e5;fill-opacity:1;fill-rule:evenodd;stroke:none;stroke-width:1px;stroke-linecap:butt;stroke-linejoin:miter;stroke-opacity:1"
         d="m 201.32055,910.85381 5.51337,5.50539 -33.21398,5.32802 3.80322,-8.01237 z"
         id="path4319"
         inkscape:connector-curvature="0" />
      <path
         inkscape:connector-curvature="0"
         id="path4340"
         d="m 164.63781,879.31353 -6.36189,7.21078 4.30493,52.03011 12.39731,-10.04498 -1.35822,-6.82222 z"
         style="fill:#4588bd;fill-opacity:1;fill-rule:evenodd;stroke:none;stroke-width:1px;stroke-linecap:butt;stroke-linejoin:miter;stroke-opacity:1"
         sodipodi:nodetypes="cccccc" />
      <path
         style="fill:#2d5a7e;fill-opacity:1;fill-rule:evenodd;stroke:none;stroke-width:1px;stroke-linecap:round;stroke-linejoin:round;stroke-opacity:1"
         d="m 206.83392,916.3592 -6.34313,1.01753 -10.07222,44.28439 z"
         id="path4346"
         inkscape:connector-curvature="0"
         sodipodi:nodetypes="cccc" />
      <path
         sodipodi:nodetypes="ccccc"
         style="fill:#8ab5d6;fill-opacity:1;fill-rule:evenodd;stroke:none;stroke-width:1px;stroke-linecap:butt;stroke-linejoin:miter;stroke-opacity:1"
         d="m 174.97816,928.50944 41.93894,9.02633 -9.56276,12.12631 -44.77349,-11.10766 z"
         id="path4342"
         inkscape:connector-curvature="0" />
      <path
         sodipodi:nodetypes="cccc"
         style="fill:#2d5a7e;fill-opacity:1;fill-rule:evenodd;stroke:none;stroke-width:1px;stroke-linecap:butt;stroke-linejoin:miter;stroke-opacity:1"
         d="m 216.9171,937.53577 -9.56276,12.12631 -4.18674,34.05198 z"
         id="path4344"
         inkscape:connector-curvature="0" />
      <path
         style="fill:#2d5a7e;fill-opacity:1;fill-rule:evenodd;stroke:none;stroke-width:1px;stroke-linecap:round;stroke-linejoin:round;stroke-opacity:1"
         d="m 159.30869,899.00645 -1.03277,-12.48214 -22.71004,25.358 9.54851,9.43634 z"
         id="path4348"
         inkscape:connector-curvature="0"
         sodipodi:nodetypes="ccccc" />
      <path
         inkscape:connector-curvature="0"
         id="path4352"
         d="m 135.56588,911.88231 -91.571338,12.60858 -6.453315,-9.01963 z"
         style="fill:#8ab5d6;fill-opacity:1;fill-rule:evenodd;stroke:none;stroke-width:1px;stroke-linecap:butt;stroke-linejoin:miter;stroke-opacity:1"
         sodipodi:nodetypes="cccc" />
      <path
         sodipodi:nodetypes="cccccc"
         inkscape:connector-curvature="0"
         id="path4356"
         d="m 35.522091,934.455 -16.592049,7.04785 27.142431,26.15051 74.153667,-34.77538 -67.399819,27.95019 z"
         style="fill:#2d5a7e;fill-opacity:1;fill-rule:evenodd;stroke:none;stroke-width:1px;stroke-linecap:butt;stroke-linejoin:miter;stroke-opacity:1" />
      <path
         sodipodi:nodetypes="cccc"
         style="fill:#172e40;fill-opacity:1;fill-rule:evenodd;stroke:none;stroke-width:1px;stroke-linecap:butt;stroke-linejoin:miter;stroke-opacity:1"
         d="M 46.072473,967.65336 5.0326178,953.85799 18.930042,941.50285 Z"
         id="path4358"
         inkscape:connector-curvature="0" />
      <path
         style="fill:#2d5a7e;fill-opacity:1;fill-rule:evenodd;stroke:none;stroke-width:1px;stroke-linecap:round;stroke-linejoin:round;stroke-opacity:1"
         d="m 135.56588,911.88231 -15.33974,20.99567 -3.80153,1.78279 -0.1857,26.54657 7.88629,-0.32609 z"
         id="path4360"
         inkscape:connector-curvature="0"
         sodipodi:nodetypes="cccccc" />
      <path
         inkscape:connector-curvature="0"
         id="path4362"
         d="m 135.56588,911.88231 9.54851,9.43634 -14.40418,11.35981 z"
         style="fill:#172e40;fill-opacity:1;fill-rule:evenodd;stroke:none;stroke-width:1px;stroke-linecap:butt;stroke-linejoin:miter;stroke-opacity:1" />
      <path
         sodipodi:nodetypes="cccccc"
         style="fill:#172e40;fill-opacity:1;fill-rule:evenodd;stroke:none;stroke-width:1px;stroke-linecap:butt;stroke-linejoin:miter;stroke-opacity:1"
         d="m 79.907905,951.78577 36.516705,-17.125 -0.0461,6.58595 -17.409646,16.41001 -15.360259,2.80802 z"
         id="path4364"
         inkscape:connector-curvature="0" />
      <path
         sodipodi:nodetypes="ccccc"
         style="fill:#8ab5d6;fill-opacity:1;fill-rule:evenodd;stroke:none;stroke-width:1px;stroke-linecap:butt;stroke-linejoin:miter;stroke-opacity:1"
         d="m 124.1252,960.88125 -7.88629,0.32609 21.29974,27.69654 3.94594,-3.15529 z"
         id="path4366"
         inkscape:connector-curvature="0" />
      <path
         inkscape:connector-curvature="0"
         id="path4368"
         d="m 98.968874,957.65673 -15.360259,2.80802 -46.133811,8.27981 -1.678184,4.16195 50.789445,-4.76638 z"
         style="fill:#4588bd;fill-opacity:1;fill-rule:evenodd;stroke:none;stroke-width:1px;stroke-linecap:butt;stroke-linejoin:miter;stroke-opacity:1"
         sodipodi:nodetypes="cccccc" />
      <path
         inkscape:connector-curvature="0"
         id="path4370"
         d="m 139.13356,926.03543 -8.42335,6.64303 10.96226,22.51182 6.42624,-2.05304 z"
         style="fill:#8ab5d6;fill-opacity:1;fill-rule:evenodd;stroke:none;stroke-width:1px;stroke-linecap:butt;stroke-linejoin:miter;stroke-opacity:1"
         sodipodi:nodetypes="ccccc" />
      <path
         sodipodi:nodetypes="ccccc"
         style="fill:#b5d0e5;fill-opacity:1;fill-rule:evenodd;stroke:none;stroke-width:1px;stroke-linecap:butt;stroke-linejoin:miter;stroke-opacity:1"
         d="m 148.09871,953.13724 -6.42624,2.05304 19.58905,16.37723 2.93545,-1.68558 z"
         id="path4372"
         inkscape:connector-curvature="0" />
      <path
         inkscape:connector-curvature="0"
         id="path4374"
         d="m 164.19697,969.88193 -2.93545,1.68558 3.76638,27.37513 z"
         style="fill:#2d5a7e;fill-opacity:1;fill-rule:evenodd;stroke:none;stroke-width:1px;stroke-linecap:butt;stroke-linejoin:miter;stroke-opacity:1"
         sodipodi:nodetypes="cccc" />
      <path
         sodipodi:nodetypes="cccc"
         style="fill:#2d5a7e;fill-opacity:1;fill-rule:evenodd;stroke:none;stroke-width:1px;stroke-linecap:butt;stroke-linejoin:miter;stroke-opacity:1"
         d="m 141.48459,985.74859 -3.94594,3.15529 2.77816,40.90462 z"
         id="path4378"
         inkscape:connector-curvature="0" />
      <path
         inkscape:connector-curvature="0"
         id="path4380"
         d="m 69.299834,969.76237 -5.003472,0.46956 -14.57099,38.30217 z"
         style="fill:#2d5a7e;fill-opacity:1;fill-rule:evenodd;stroke:none;stroke-width:1px;stroke-linecap:butt;stroke-linejoin:miter;stroke-opacity:1"
         sodipodi:nodetypes="cccc" />
      <path
         sodipodi:nodetypes="ccccc"
         style="fill:#2d5a7e;fill-opacity:1;fill-rule:evenodd;stroke:none;stroke-width:1px;stroke-linecap:butt;stroke-linejoin:miter;stroke-opacity:1"
         d="m 37.474804,968.74456 -8.82761,6.61768 -6.283546,42.11686 13.432972,-44.57259 z"
         id="path4382"
         inkscape:connector-curvature="0" />
      <path
         style="font-style:normal;font-weight:normal;font-size:medium;line-height:125%;font-family:sans-serif;letter-spacing:0px;word-spacing:0px;fill:#5090c1;fill-opacity:1;stroke:none;stroke-width:1px;stroke-linecap:butt;stroke-linejoin:miter;stroke-opacity:1"
         d="m 561.9397,857.66195 11.39278,0 0,14.42673 -11.39278,0 0,-14.42673 z"
         id="path4204"
         inkscape:connector-curvature="0" />
      <path
         d="m 641.3176,886.70114 0,10.7736 q -4.82955,-2.47669 -10.03059,-3.71504 -5.20105,-1.23834 -10.7736,-1.23834 -8.48267,0 -12.75495,2.60052 -4.21038,2.60053 -4.21038,7.80157 0,3.9627 3.03395,6.25365 3.03394,2.22902 12.1977,4.27228 l 3.90078,0.86685 q 12.13579,2.60052 17.213,7.36815 5.13913,4.7057 5.13913,13.18837 0,9.65908 -7.67774,15.29355 -7.61582,5.63447 -20.98994,5.63447 -5.57255,0 -11.64045,-1.11451 -6.00597,-1.05259 -12.69303,-3.21969 l 0,-11.76428 q 6.31555,3.28162 12.44536,4.95338 6.12981,1.60985 12.13579,1.60985 8.04924,0 12.38344,-2.72435 4.3342,-2.78628 4.3342,-7.80157 0,-4.64381 -3.15778,-7.1205 -3.09585,-2.47669 -13.68369,-4.76762 l -3.96272,-0.92877 q -10.58784,-2.22901 -15.29355,-6.81088 -4.70571,-4.64379 -4.70571,-12.69303 0,-9.78294 6.93473,-15.10782 6.93472,-5.32488 19.68969,-5.32488 6.31554,0 11.8881,0.92876 5.57255,0.92876 10.27826,2.78628 z m -79.3779,-2.04327 11.39278,0 0,69.34731 -11.39278,0 0,-69.34731 z m -38.51251,-19.68969 0,19.68969 23.46663,0 0,8.85416 -23.46663,0 0,37.64568 q 0,8.48266 2.29094,10.89743 2.35285,2.41477 9.47334,2.41477 l 11.70235,0 0,9.53527 -11.70235,0 q -13.18837,0 -18.20368,-4.89148 -5.01529,-4.95337 -5.01529,-17.95599 l 0,-37.64568 -8.35883,0 0,-8.85416 8.35883,0 0,-19.68969 11.45469,0 z m -34.11641,47.18093 0,41.85607 -11.39278,0 0,-41.48456 q 0,-9.84484 -3.83886,-14.7363 -3.83887,-4.89145 -11.51661,-4.89145 -9.22566,0 -14.55054,5.88212 -5.32488,5.88214 -5.32488,16.03657 l 0,39.19362 -11.4547,0 0,-69.34731 11.4547,0 0,10.7736 q 4.08653,-6.25364 9.59716,-9.34951 5.57256,-3.09586 12.81687,-3.09586 11.95003,0 18.07983,7.43008 6.12981,7.36814 6.12981,21.73293 z m -103.89712,6.99666 q -13.80753,0 -19.13242,3.15778 -5.32488,3.15777 -5.32488,10.7736 0,6.06788 3.9627,9.65909 4.02462,3.52928 10.89743,3.52928 9.47333,0 15.16972,-6.68707 5.7583,-6.74897 5.7583,-17.89407 l 0,-2.53861 -11.33085,0 z m 22.72363,-4.7057 0,39.56511 -11.39278,0 0,-10.52593 q -3.90077,6.31555 -9.721,9.34949 -5.82022,2.97203 -14.24097,2.97203 -10.64976,0 -16.96533,-5.94406 -6.25363,-6.00597 -6.25363,-16.03656 0,-11.70235 7.80157,-17.64641 7.86349,-5.94406 23.40472,-5.94406 l 15.97464,0 0,-1.1145 q 0,-7.86348 -5.20104,-12.13578 -5.13913,-4.3342 -14.48864,-4.3342 -5.94405,0 -11.57852,1.42408 -5.63447,1.42411 -10.83551,4.2723 l 0,-10.52593 q 6.25364,-2.41478 12.13577,-3.5912 5.88214,-1.23835 11.45469,-1.23835 15.04588,0 22.47597,7.80157 7.43006,7.80158 7.43006,23.6524 z M 284.30281,897.97008 q 4.2723,-7.67774 10.21636,-11.33086 5.94404,-3.65312 13.99328,-3.65312 10.83552,0 16.71766,7.61583 5.88214,7.5539 5.88214,21.54718 l 0,41.85607 -11.45469,0 0,-41.48456 q 0,-9.96867 -3.52929,-14.79821 -3.52927,-4.82954 -10.7736,-4.82954 -8.85416,0 -13.99329,5.88212 -5.13913,5.88214 -5.13913,16.03657 l 0,39.19362 -11.45469,0 0,-41.48456 q 0,-10.03059 -3.52929,-14.79821 -3.52927,-4.82954 -10.89743,-4.82954 -8.73032,0 -13.86945,5.94404 -5.13913,5.88214 -5.13913,15.97465 l 0,39.19362 -11.45469,0 0,-69.34731 11.45469,0 0,10.7736 q 3.90078,-6.37748 9.3495,-9.41143 5.44871,-3.03394 12.9407,-3.03394 7.5539,0 12.81686,3.83887 5.32488,3.83888 7.86349,11.14511 z"
         style="font-style:normal;font-weight:normal;font-size:medium;line-height:125%;font-family:sans-serif;letter-spacing:0px;word-spacing:0px;fill:#2d5a7e;fill-opacity:1;stroke:none;stroke-width:1px;stroke-linecap:butt;stroke-linejoin:miter;stroke-opacity:1"
         id="path4206"
         inkscape:connector-curvature="0" />
      <g
         transform="matrix(1.6230043,0,0,1.6230043,-3.1353429,-641.57517)"
         id="text4418"
         style="font-style:normal;font-weight:normal;font-size:37.8212204px;line-height:125%;font-family:sans-serif;letter-spacing:3.94000006px;word-spacing:0px;fill:#5090c1;fill-opacity:1;stroke:none;stroke-width:1px;stroke-linecap:butt;stroke-linejoin:miter;stroke-opacity:1">
        <path
           id="path4175"
           style="fill:#5090c1;fill-opacity:1"
           d="m 158.54593,1011.1944 q 0,-3.7489 -1.55126,-5.8726 -1.53279,-2.1422 -4.22903,-2.1422 -2.69624,0 -4.2475,2.1422 -1.5328,2.1237 -1.5328,5.8726 0,3.7489 1.5328,5.8911 1.55126,2.1238 4.2475,2.1238 2.69624,0 4.22903,-2.1238 1.55126,-2.1422 1.55126,-5.8911 z m -11.56059,-7.2207 q 1.07111,-1.8468 2.69624,-2.7332 1.6436,-0.9049 3.91509,-0.9049 3.76735,0 6.11271,2.9917 2.36382,2.9917 2.36382,7.8671 0,4.8754 -2.36382,7.8671 -2.34536,2.9918 -6.11271,2.9918 -2.27149,0 -3.91509,-0.8865 -1.62513,-0.9049 -2.69624,-2.7516 l 0,3.1025 -3.41646,0 0,-28.73526 3.41646,0 0,11.19126 z"
           inkscape:connector-curvature="0" />
        <path
           id="path4177"
           style="fill:#5090c1;fill-opacity:1"
           d="m 171.29488,1013.3551 0,-12.5209 3.398,0 0,12.3916 q 0,2.9364 1.14498,4.4137 1.14498,1.459 3.43493,1.459 2.75164,0 4.33984,-1.7544 1.60666,-1.7544 1.60666,-4.7831 l 0,-11.7268 3.398,0 0,20.6835 -3.398,0 0,-3.1764 q -1.23731,1.8837 -2.88091,2.8071 -1.62513,0.9049 -3.78582,0.9049 -3.5642,0 -5.41094,-2.2161 -1.84674,-2.2161 -1.84674,-6.4821 z m 8.5504,-13.0195 0,0 z"
           inkscape:connector-curvature="0" />
        <path
           id="path4179"
           style="fill:#5090c1;fill-opacity:1"
           d="m 213.20384,1010.9359 q 0,-3.6935 -1.53279,-5.7249 -1.51433,-2.0314 -4.26597,-2.0314 -2.73318,0 -4.26597,2.0314 -1.51433,2.0314 -1.51433,5.7249 0,3.675 1.51433,5.7064 1.53279,2.0314 4.26597,2.0314 2.75164,0 4.26597,-2.0314 1.53279,-2.0314 1.53279,-5.7064 z m 3.398,8.0148 q 0,5.2817 -2.34536,7.8487 -2.34536,2.5854 -7.18382,2.5854 -1.79133,0 -3.37953,-0.277 -1.58819,-0.2585 -3.08405,-0.8126 l 0,-3.3056 q 1.49586,0.8125 2.95478,1.2004 1.45892,0.3878 2.97325,0.3878 3.3426,0 5.00466,-1.7544 1.66207,-1.736 1.66207,-5.2632 l 0,-1.6806 q -1.05264,1.8283 -2.69624,2.7332 -1.6436,0.9049 -3.93356,0.9049 -3.80428,0 -6.13117,-2.8994 -2.32689,-2.8994 -2.32689,-7.6824 0,-4.8015 2.32689,-7.7009 2.32689,-2.8994 6.13117,-2.8994 2.28996,0 3.93356,0.9049 1.6436,0.9049 2.69624,2.7332 l 0,-3.1395 3.398,0 0,18.1165 z"
           inkscape:connector-curvature="0" />
        <path
           id="path4181"
           style="fill:#5090c1;fill-opacity:1"
           d="m 246.88278,994.96159 0,5.87261 6.99915,0 0,2.6409 -6.99915,0 0,11.2281 q 0,2.5301 0.6833,3.2503 0.70176,0.7202 2.82551,0.7202 l 3.49034,0 0,2.844 -3.49034,0 q -3.93356,0 -5.42941,-1.4589 -1.49586,-1.4774 -1.49586,-5.3556 l 0,-11.2281 -2.4931,0 0,-2.6409 2.4931,0 0,-5.87261 3.41646,0 z"
           inkscape:connector-curvature="0" />
        <path
           id="path4183"
           style="fill:#5090c1;fill-opacity:1"
           d="m 274.29485,1004.0106 q -0.57249,-0.3324 -1.25579,-0.4801 -0.66482,-0.1662 -1.47739,-0.1662 -2.88091,0 -4.43217,1.8836 -1.5328,1.8652 -1.5328,5.374 l 0,10.8958 -3.41646,0 0,-20.6835 3.41646,0 0,3.2133 q 1.07111,-1.8836 2.78858,-2.7885 1.71747,-0.9234 4.17363,-0.9234 0.35088,0 0.77563,0.055 0.42475,0.037 0.94184,0.1293 l 0.0185,3.4903 z"
           inkscape:connector-curvature="0" />
        <path
           id="path4185"
           style="fill:#5090c1;fill-opacity:1"
           d="m 291.23588,1011.1206 q -4.11822,0 -5.70642,0.9418 -1.5882,0.9418 -1.5882,3.2133 0,1.8098 1.18192,2.8809 1.20038,1.0527 3.25026,1.0527 2.82551,0 4.52451,-1.9945 1.71747,-2.0129 1.71747,-5.3371 l 0,-0.7571 -3.37954,0 z m 6.77754,-1.4036 0,11.8007 -3.398,0 0,-3.1395 q -1.16345,1.8837 -2.89938,2.7886 -1.73594,0.8865 -4.2475,0.8865 -3.1764,0 -5.06007,-1.7729 -1.86521,-1.7914 -1.86521,-4.7831 0,-3.4903 2.3269,-5.2632 2.34535,-1.7728 6.98067,-1.7728 l 4.76459,0 0,-0.3325 q 0,-2.3453 -1.55126,-3.6196 -1.5328,-1.2927 -4.32137,-1.2927 -1.77287,0 -3.45341,0.4248 -1.68053,0.4247 -3.23179,1.2742 l 0,-3.1394 q 1.86521,-0.7203 3.61961,-1.0712 1.7544,-0.3693 3.41647,-0.3693 4.48757,0 6.70366,2.3269 2.21609,2.3269 2.21609,7.0545 z"
           inkscape:connector-curvature="0" />
        <path
           id="path4187"
           style="fill:#5090c1;fill-opacity:1"
           d="m 323.85574,1001.6283 0,3.1764 q -1.44046,-0.7941 -2.89938,-1.1819 -1.44046,-0.4063 -2.91785,-0.4063 -3.30566,0 -5.13393,2.1053 -1.82828,2.0868 -1.82828,5.8726 0,3.7858 1.82828,5.8911 1.82827,2.0868 5.13393,2.0868 1.47739,0 2.91785,-0.3878 1.45892,-0.4063 2.89938,-1.2004 l 0,3.1395 q -1.42199,0.6648 -2.95478,0.9972 -1.51433,0.3325 -3.2318,0.3325 -4.67225,0 -7.42389,-2.9364 -2.75164,-2.9363 -2.75164,-7.9225 0,-5.06 2.77011,-7.9594 2.78858,-2.8994 7.62703,-2.8994 1.56973,0 3.06559,0.3324 1.49586,0.314 2.89938,0.9603 z"
           inkscape:connector-curvature="0" />
        <path
           id="path4189"
           style="fill:#5090c1;fill-opacity:1"
           d="m 333.61297,992.78244 3.41647,0 0,16.97156 10.1386,-8.9198 4.33984,0 -10.96963,9.6769 11.43131,11.0066 -4.43217,0 -10.50795,-10.1017 0,10.1017 -3.41647,0 0,-28.73526 z"
           inkscape:connector-curvature="0" />
        <path
           id="path4191"
           style="fill:#5090c1;fill-opacity:1"
           d="m 375.98361,1010.3265 0,1.662 -15.62341,0 q 0.22161,3.5088 2.10528,5.3556 1.90214,1.8282 5.28168,1.8282 1.95754,0 3.78581,-0.4801 1.84674,-0.4802 3.65655,-1.4405 l 0,3.2134 q -1.82827,0.7756 -3.74888,1.1819 -1.92061,0.4063 -3.89662,0.4063 -4.94926,0 -7.84865,-2.881 -2.88091,-2.8809 -2.88091,-7.7932 0,-5.0785 2.73318,-8.0518 2.75164,-2.9917 7.40542,-2.9917 4.17363,0 6.59286,2.6962 2.43769,2.6778 2.43769,7.2947 z m -3.398,-0.9973 q -0.0369,-2.7886 -1.56972,-4.4506 -1.51433,-1.6621 -4.0259,-1.6621 -2.84397,0 -4.56144,1.6067 -1.699,1.6066 -1.95754,4.5245 l 12.1146,-0.019 z"
           inkscape:connector-curvature="0" />
        <path
           id="path4193"
           style="fill:#5090c1;fill-opacity:1"
           d="m 397.48611,1004.0106 q -0.57249,-0.3324 -1.25578,-0.4801 -0.66482,-0.1662 -1.47739,-0.1662 -2.88091,0 -4.43217,1.8836 -1.5328,1.8652 -1.5328,5.374 l 0,10.8958 -3.41647,0 0,-20.6835 3.41647,0 0,3.2133 q 1.07111,-1.8836 2.78858,-2.7885 1.71747,-0.9234 4.17363,-0.9234 0.35088,0 0.77563,0.055 0.42475,0.037 0.94184,0.1293 l 0.0185,3.4903 z"
           inkscape:connector-curvature="0" />
      </g>
    </g>
  </g>
</svg>
